<?xml version="1.0" encoding="utf-8"?>
<!-- Generator: Adobe Illustrator 22.0.1, SVG Export Plug-In . SVG Version: 6.00 Build 0)  -->
<svg version="1.1" id="Layer_1" xmlns="http://www.w3.org/2000/svg" xmlns:xlink="http://www.w3.org/1999/xlink" x="0px" y="0px"
	 viewBox="0 0 144 144" style="enable-background:new 0 0 144 144;" xml:space="preserve">
<style type="text/css">
	.st0{fill:url(#SVGID_1_);}
	.st1{fill:url(#SVGID_2_);}
	.st2{fill:url(#SVGID_3_);}
	.st3{fill:url(#SVGID_4_);}
	.st4{fill:url(#SVGID_5_);}
	.st5{fill:url(#SVGID_6_);}
</style>
<g id="_x37_rXIpJ_3_">
	<g>
		<g>
			<linearGradient id="SVGID_1_" gradientUnits="userSpaceOnUse" x1="86.7892" y1="25.3" x2="86.7892" y2="119.5">
				<stop  offset="0" style="stop-color:#7F9DFF"/>
				<stop  offset="0.5078" style="stop-color:#817FFF"/>
				<stop  offset="1" style="stop-color:#0400FF"/>
			</linearGradient>
			<path class="st0" d="M54.8,29.1c-1.1,0.5-2.7,1.9-2.8,3.5c-0.1,3-0.1,5.9-0.1,9c0,1.1,0,2.1,0,3.2v1.5h8.4v-1.5
				c0-0.8,0-1.6,0-2.3c0-1.6,0-3.2-0.1-4.8c-0.1-1.3,0.2-1.9,1.9-2.4c3.8-1.2,7.7-1.8,11.7-1.8c12.7,0,24.5,5.9,31.7,15.8
				c9.7,13.3,9.7,32.7,0.1,46.2c-7.1,10-19,15.9-31.7,15.9c-3.9,0-7.8-0.6-11.5-1.7c-1.7-0.5-2.1-1-2.1-2.7c0.1-8.3,0.3-20.7,0.3-25
				l25.9-0.2l0.2-7.9l-26.3,0.2c0-2.8,0-8.3,0-10.1c0-0.2,0-0.6,0-1.1c-0.1-0.6-0.1-1.4-0.1-2.1h33.6l0.2-8.1l-31.9-0.2
				c-1.6-2.2-3.6-3.3-6-3.3c-0.9,0-1.8,0.1-2.9,0.4l-0.9,0.3l-0.2,0.9c0,0.1-0.1,0.3-0.1,0.4c-0.1,0.4-0.2,0.8-0.2,1.3v7.6
				c0,16.8,0,34.2,0.1,51.3c0,1.9,2,4.1,3.7,4.7c6.1,2.3,12.4,3.4,18.7,3.4c13.8,0,26.7-5.4,35.4-15.2c8.8-9.4,12.8-22,11.7-36.3
				c-2.3-29.3-26.1-42.7-47.3-42.7C67.5,25.3,60.9,26.6,54.8,29.1z M119.9,68.5c3,38.1-32.5,57.9-63.7,46.3
				c-1.2-0.4-2.7-2.1-2.7-3.3c-0.2-19.6-0.1-39.3-0.1-58.9c0-0.4,0.2-0.9,0.3-1.4c3.4-0.9,5.7-0.3,7.7,2.9l31.2,0.2l-0.1,5.1
				l-33.7-0.1c-0.1,1.7,0.1,4,0.1,4.7c0,2.4,0,11.6,0,11.6l26.2-0.2l-0.1,5l-25.9,0.2c0,0-0.2,16.4-0.3,26.5c0,2.5,0.9,3.5,3.1,4.2
				c16.5,5.1,35.1-0.9,44.9-14.8c10-14,10-34.2-0.1-48S78.1,28.8,61.7,34c-2.2,0.7-3.1,1.7-2.9,4c0.2,2.2,0,4.4,0,7
				c-2,0-3.5,0-5.4,0c0-4.1-0.1-8.1,0.1-12.1c0-0.8,1-1.8,1.8-2.1C82,19.9,117.2,33.6,119.9,68.5z"/>
			<linearGradient id="SVGID_2_" gradientUnits="userSpaceOnUse" x1="86.7265" y1="25.3" x2="86.7265" y2="119.5">
				<stop  offset="0" style="stop-color:#7F9DFF"/>
				<stop  offset="0.5078" style="stop-color:#817FFF"/>
				<stop  offset="1" style="stop-color:#0400FF"/>
			</linearGradient>
			<path class="st1" d="M55.3,30.8c-0.8,0.3-1.8,1.3-1.8,2.1c-0.2,4-0.1,8-0.1,12.1c1.9,0,3.4,0,5.4,0c0-2.6,0.2-4.8,0-7
				c-0.2-2.3,0.7-3.3,2.9-4c16.4-5.2,34.9,0.7,45,14.5s10.1,34,0.1,48c-9.8,13.9-28.4,19.9-44.9,14.8c-2.2-0.7-3.1-1.7-3.1-4.2
				c0.1-10.1,0.3-26.5,0.3-26.5L85,80.4l0.1-5l-26.2,0.2c0,0,0-9.2,0-11.6c0-0.7-0.2-3-0.1-4.7l33.7,0.1l0.1-5.1l-31.2-0.2
				c-2-3.2-4.3-3.8-7.7-2.9c-0.1,0.5-0.3,1-0.3,1.4c0,19.6-0.1,39.3,0.1,58.9c0,1.2,1.5,2.9,2.7,3.3c31.2,11.6,66.7-8.2,63.7-46.3
				C117.2,33.6,82,19.9,55.3,30.8z"/>
			<linearGradient id="SVGID_3_" gradientUnits="userSpaceOnUse" x1="86.7265" y1="27.1399" x2="86.7265" y2="118.1017">
				<stop  offset="0" style="stop-color:#7F9DFF"/>
				<stop  offset="0.5078" style="stop-color:#817FFF"/>
				<stop  offset="1" style="stop-color:#0400FF"/>
			</linearGradient>
			<path class="st2" d="M55.3,30.8c-0.8,0.3-1.8,1.3-1.8,2.1c-0.2,4-0.1,8-0.1,12.1c1.9,0,3.4,0,5.4,0c0-2.6,0.2-4.8,0-7
				c-0.2-2.3,0.7-3.3,2.9-4c16.4-5.2,34.9,0.7,45,14.5s10.1,34,0.1,48c-9.8,13.9-28.4,19.9-44.9,14.8c-2.2-0.7-3.1-1.7-3.1-4.2
				c0.1-10.1,0.3-26.5,0.3-26.5L85,80.4l0.1-5l-26.2,0.2c0,0,0-9.2,0-11.6c0-0.7-0.2-3-0.1-4.7l33.7,0.1l0.1-5.1l-31.2-0.2
				c-2-3.2-4.3-3.8-7.7-2.9c-0.1,0.5-0.3,1-0.3,1.4c0,19.6-0.1,39.3,0.1,58.9c0,1.2,1.5,2.9,2.7,3.3c31.2,11.6,66.7-8.2,63.7-46.3
				C117.2,33.6,82,19.9,55.3,30.8z"/>
			<linearGradient id="SVGID_4_" gradientUnits="userSpaceOnUse" x1="72.3481" y1="13.9" x2="72.3481" y2="130.9">
				<stop  offset="0" style="stop-color:#7F9DFF"/>
				<stop  offset="0.5078" style="stop-color:#817FFF"/>
				<stop  offset="1" style="stop-color:#0400FF"/>
			</linearGradient>
			<path class="st3" d="M122.2,90.4l-0.6,1.4c-8.3,19.6-26.1,31.3-47.7,31.3c-7.8,0-15.4-1.6-21.9-4.6
				c-24.7-11.4-35.5-40.7-24.6-66.7c4.3-10.3,12.1-18.8,22.2-24c7.6-3.9,15.6-5.9,23.9-5.9c6.2,0,12.8,1.1,19.5,3.3l1.4,0.4l3.2-7.8
				l-1.8-0.4c-1.9-0.4-3.8-0.9-5.6-1.3C85.8,15,81.6,14,77,13.9c-1.1,0-2.2,0-3.1,0c-1.3,0-2.3,0-3.1,0.1c-1.1,0.1-2.1,0.3-2.9,0.4
				c-0.5,0.1-0.9,0.1-1.4,0.2C44.9,17.3,28.4,29,20.1,47.4c-8.5,18.9-6.7,42,4.8,58.7c9.6,14.1,23.5,22.3,41.4,24.3
				c2.1,0.3,4.5,0.5,7.2,0.5c4.4,0,7.9-0.5,8.1-0.6c22.3-2.7,38.4-14.6,47.7-35.3l0.6-1.4L122.2,90.4z M81.4,129c0-0.1-8,1-14.9-0.1
				c-16.9-1.9-30.7-9.5-40.4-23.6c-21-30.7-8.8-83,40.6-89.1c1.3-0.2,2.5-0.4,4.3-0.6c1.5-0.1,3.6-0.1,6-0.1
				c6.3,0.2,12.1,2.2,18.6,3.5c-0.8,2-1.3,3.3-2,4.8c-15.4-5.1-30.4-4.7-44.6,2.7c-10.3,5.3-18.5,14-22.9,24.8
				c-11.3,27.1,0.1,57,25.3,68.7c22.4,10.4,58,4.9,71.6-27.4c1.5,0.6,3,1.2,4.9,2C118.6,115.2,103,126.4,81.4,129z"/>
			<linearGradient id="SVGID_5_" gradientUnits="userSpaceOnUse" x1="72.0804" y1="13.9" x2="72.0804" y2="130.9">
				<stop  offset="0" style="stop-color:#7F9DFF"/>
				<stop  offset="0.5078" style="stop-color:#817FFF"/>
				<stop  offset="1" style="stop-color:#0400FF"/>
			</linearGradient>
			<path class="st4" d="M51.4,120c-25.2-11.7-36.6-41.6-25.3-68.7C30.5,40.5,38.7,31.8,49,26.5c14.2-7.4,29.2-7.8,44.6-2.7
				c0.7-1.5,1.2-2.8,2-4.8c-6.5-1.3-12.3-3.3-18.6-3.5c-2.4,0-4.5,0-6,0.1c-1.8,0.2-3,0.4-4.3,0.6c-49.4,6.1-61.6,58.4-40.6,89.1
				c9.7,14.1,23.5,21.7,40.4,23.6c6.9,1.1,14.9,0,14.9,0.1c21.6-2.6,37.2-13.8,46.5-34.4c-1.9-0.8-3.4-1.4-4.9-2
				C109.4,124.9,73.8,130.4,51.4,120z"/>
			<linearGradient id="SVGID_6_" gradientUnits="userSpaceOnUse" x1="72.0804" y1="15.5" x2="72.0804" y2="129.3927">
				<stop  offset="0" style="stop-color:#7F9DFF"/>
				<stop  offset="0.5078" style="stop-color:#817FFF"/>
				<stop  offset="1" style="stop-color:#0400FF"/>
			</linearGradient>
			<path class="st5" d="M51.4,120c-25.2-11.7-36.6-41.6-25.3-68.7C30.5,40.5,38.7,31.8,49,26.5c14.2-7.4,29.2-7.8,44.6-2.7
				c0.7-1.5,1.2-2.8,2-4.8c-6.5-1.3-12.3-3.3-18.6-3.5c-2.4,0-4.5,0-6,0.1c-1.8,0.2-3,0.4-4.3,0.6c-49.4,6.1-61.6,58.4-40.6,89.1
				c9.7,14.1,23.5,21.7,40.4,23.6c6.9,1.1,14.9,0,14.9,0.1c21.6-2.6,37.2-13.8,46.5-34.4c-1.9-0.8-3.4-1.4-4.9-2
				C109.4,124.9,73.8,130.4,51.4,120z"/>
		</g>
	</g>
</g>
</svg>
