<?xml version="1.0" encoding="utf-8"?>
<!-- Generator: Adobe Illustrator 22.0.1, SVG Export Plug-In . SVG Version: 6.00 Build 0)  -->
<svg version="1.1" id="Layer_1" xmlns="http://www.w3.org/2000/svg" xmlns:xlink="http://www.w3.org/1999/xlink" x="0px" y="0px"
	 viewBox="0 0 144 144" style="enable-background:new 0 0 144 144;" xml:space="preserve">
<style type="text/css">
	.st0{fill:url(#SVGID_1_);}
	.st1{fill:url(#SVGID_2_);}
	.st2{fill:url(#SVGID_3_);}
	.st3{fill:url(#SVGID_4_);}
</style>
<g>
	<linearGradient id="SVGID_1_" gradientUnits="userSpaceOnUse" x1="86.5378" y1="25.6133" x2="86.5378" y2="118.7354">
		<stop  offset="0" style="stop-color:#7F9DFF"/>
		<stop  offset="0.5078" style="stop-color:#817FFF"/>
		<stop  offset="1" style="stop-color:#0400FF"/>
	</linearGradient>
	<path class="st0" d="M74.2,118.7c-6.3,0-12.5-1.1-18.6-3.4c-1.5-0.5-3.4-2.6-3.4-4.3c-0.1-14.7-0.1-29.7-0.1-44.2
		c0-4.9,0-9.8,0-14.7c0-0.4,0.1-0.8,0.2-1.1c0-0.2,0.1-0.3,0.1-0.5l0.1-0.7l0.7-0.2c1.1-0.3,2-0.4,2.8-0.4c2.4,0,4.2,1,5.7,3.3
		l30.1,0.2l0.1,0c0,0,0.1,0,0.1,0l1.4,0l0,0.3c1.3,0.6,2.1,1.9,2.1,3.3c0,1.5-0.9,2.8-2.3,3.4l0,0.3l-1.2,0c0,0-0.1,0-0.2,0
		c-0.1,0-0.2,0-0.3,0l-32.1-0.1c0,0.9,0,1.8,0.1,2.5c0,0.5,0,0.9,0,1.1v10.5l24.1-0.2c0.2,0,0.3,0,0.5,0c0.2,0,0.3,0,0.4,0l1,0
		l0,0.3c1.3,0.6,2.2,1.9,2.2,3.3c0,2-1.6,3.6-3.6,3.6c-0.2,0-0.5,0-0.7-0.1L60,81.2c0,3.8-0.2,16.9-0.3,25.4c0,1.9,0.5,2.6,2.3,3.2
		c3.7,1.2,7.7,1.7,11.7,1.7c12.9,0,24.9-6,32-16.1c9.8-13.7,9.7-33.3-0.1-46.7c-7.3-10-19.2-15.9-32-15.9c-4,0-8,0.6-11.8,1.8
		c-1.8,0.6-2.3,1.2-2.2,2.9c0.1,1.5,0.1,3,0.1,4.6c0,0.8,0,1.7,0,2.5v1.1h-7.6v-1.1c0-1,0-2.1,0-3.1c0-3,0-6.1,0.1-9.1
		c0-1.4,1.5-2.7,2.5-3.1c6.1-2.5,12.5-3.7,19.2-3.7c21,0,44.6,13.3,46.8,42.4c1.1,14.2-2.9,26.6-11.6,36
		C100.6,113.4,87.8,118.7,74.2,118.7C74.2,118.7,74.2,118.7,74.2,118.7z"/>
	<linearGradient id="SVGID_2_" gradientUnits="userSpaceOnUse" x1="86.5368" y1="26.6935" x2="86.5368" y2="117.6554">
		<stop  offset="0" style="stop-color:#7F9DFF"/>
		<stop  offset="0.5078" style="stop-color:#817FFF"/>
		<stop  offset="1" style="stop-color:#0400FF"/>
	</linearGradient>
	<path class="st1" d="M55.1,30.4c-0.8,0.3-1.8,1.3-1.8,2.1c-0.2,4-0.1,8-0.1,12.1c1.9,0,3.4,0,5.4,0c0-2.6,0.2-4.8,0-7
		c-0.2-2.3,0.7-3.3,2.9-4c16.4-5.2,34.9,0.7,45,14.5s10.1,34,0.1,48C96.8,110,78.2,116,61.7,110.9c-2.2-0.7-3.1-1.7-3.1-4.2
		c0.1-10.1,0.3-26.5,0.3-26.5L83.8,80c0.2,0,0.4,0.1,0.6,0.1c1.4,0,2.6-1.1,2.6-2.6c0-1.3-0.9-2.3-2.1-2.5l0,0l-0.1,0
		c-0.1,0-0.2,0-0.4,0c-0.1,0-0.3,0-0.4,0l-25.3,0.2c0,0,0-9.2,0-11.6c0-0.7-0.2-3-0.1-4.7L91.8,59c0.1,0,0.1,0,0.2,0
		c0.1,0,0.1,0,0.2,0l0.1,0l0,0c1.3-0.2,2.2-1.2,2.2-2.5c0-1.3-0.9-2.3-2.1-2.5l0,0l-0.3,0c0,0-0.1,0-0.1,0c0,0,0,0-0.1,0l-30.7-0.2
		c-2-3.2-4.3-3.8-7.7-2.9c-0.1,0.5-0.3,1-0.3,1.4c0,19.6-0.1,39.3,0.1,58.9c0,1.2,1.5,2.9,2.7,3.3c31.2,11.6,66.7-8.2,63.7-46.3
		C117,33.2,81.8,19.5,55.1,30.4z"/>
	<linearGradient id="SVGID_3_" gradientUnits="userSpaceOnUse" x1="72" y1="13.9736" x2="72" y2="130.0264">
		<stop  offset="0" style="stop-color:#7F9DFF"/>
		<stop  offset="0.5078" style="stop-color:#817FFF"/>
		<stop  offset="1" style="stop-color:#0400FF"/>
	</linearGradient>
	<path class="st2" d="M73.3,130c-2.7,0-5.1-0.2-7.2-0.5c-17.7-2-31.5-10.1-41.1-24.1c-11.4-16.6-13.2-39.5-4.8-58.3
		c8.3-18.3,24.6-29.8,46.1-32.5l0.5-0.1c1.1-0.2,2.2-0.3,3.8-0.5c1.6-0.1,3.7-0.1,6.1-0.1c6.3,0.2,12.1,1.9,18.2,3.8l1.6,0.5
		l-0.1,0.3c0.7,0.6,1.2,1.6,1.2,2.6c0,1.9-1.5,3.4-3.4,3.4c-0.4,0-0.7-0.1-1.1-0.2C86.3,22.2,79.7,21,73.5,21c-8.4,0-16.5,2-24.2,6
		c-10.2,5.3-18.2,13.9-22.4,24.2c-10.9,26.2-0.1,55.8,24.8,67.3c6.6,3.1,14.2,4.7,22.1,4.7c0,0,0,0,0,0c21.8,0,39.8-11.8,48.1-31.5
		l0.4-0.9l0.1,0c0.7-0.9,1.8-1.5,3-1.5c2.1,0,3.7,1.7,3.7,3.7c0,0.5-0.1,1-0.3,1.5c-9.3,20.6-25.2,32.4-47.4,35l-1.2,0.1v-0.1
		C78.7,129.8,76.2,130,73.3,130z"/>
	<linearGradient id="SVGID_4_" gradientUnits="userSpaceOnUse" x1="72.0019" y1="15.0537" x2="72.0019" y2="128.9463">
		<stop  offset="0" style="stop-color:#7F9DFF"/>
		<stop  offset="0.5078" style="stop-color:#817FFF"/>
		<stop  offset="1" style="stop-color:#0400FF"/>
	</linearGradient>
	<path class="st3" d="M127.9,93.1c0-1.5-1.2-2.6-2.6-2.6c-1.1,0-2.1,0.7-2.5,1.7c0,0,0,0,0,0c-13.6,32.3-49.2,37.8-71.6,27.4
		C26,107.9,14.6,78,25.9,50.9c4.4-10.8,12.6-19.5,22.9-24.8C63,18.7,78,18.3,93.4,23.4c0,0,0,0,0,0c0.2,0.1,0.5,0.1,0.8,0.1
		c1.3,0,2.3-1.1,2.3-2.3c0-1-0.6-1.8-1.4-2.2c0,0,0,0,0,0c-6.3-1.9-12-3.7-18.3-3.9c-2.4,0-4.5,0-6,0.1c-1.8,0.2-3,0.4-4.3,0.6
		c-49.4,6.1-61.6,58.4-40.6,89.1c9.7,14.1,23.5,21.7,40.4,23.6c6.9,1.1,14.9,0,14.9,0.1c21.6-2.6,37.2-13.8,46.5-34.4c0,0,0,0,0,0
		C127.9,93.8,127.9,93.5,127.9,93.1z"/>
</g>
</svg>
