<?xml version="1.0" encoding="utf-8"?>
<!-- Generator: Adobe Illustrator 22.0.1, SVG Export Plug-In . SVG Version: 6.00 Build 0)  -->
<svg version="1.1" id="Layer_1" xmlns="http://www.w3.org/2000/svg" xmlns:xlink="http://www.w3.org/1999/xlink" x="0px" y="0px"
	 viewBox="0 0 144 144" style="enable-background:new 0 0 144 144;" xml:space="preserve">
<style type="text/css">
	.st0{fill:url(#SVGID_1_);}
	.st1{fill:url(#SVGID_2_);}
</style>
<g>
	<linearGradient id="SVGID_1_" gradientUnits="userSpaceOnUse" x1="86.7265" y1="27.1399" x2="86.7265" y2="118.1017">
		<stop  offset="0" style="stop-color:#7F9DFF"/>
		<stop  offset="0.5078" style="stop-color:#817FFF"/>
		<stop  offset="1" style="stop-color:#0400FF"/>
	</linearGradient>
	<path class="st0" d="M55.3,30.8c-0.8,0.3-1.8,1.3-1.8,2.1c-0.2,4-0.1,8-0.1,12.1c1.9,0,3.4,0,5.4,0c0-2.6,0.2-4.8,0-7
		c-0.2-2.3,0.7-3.3,2.9-4c16.4-5.2,34.9,0.7,45,14.5s10.1,34,0.1,48c-9.8,13.9-28.4,19.9-44.9,14.8c-2.2-0.7-3.1-1.7-3.1-4.2
		c0.1-10.1,0.3-26.5,0.3-26.5L84,80.4c0.2,0,0.4,0.1,0.6,0.1c1.4,0,2.6-1.1,2.6-2.6c0-1.3-0.9-2.3-2.1-2.5l0,0l-0.1,0
		c-0.1,0-0.2,0-0.4,0c-0.1,0-0.3,0-0.4,0l-25.3,0.2c0,0,0-9.2,0-11.6c0-0.7-0.2-3-0.1-4.7L92,59.4c0.1,0,0.1,0,0.2,0
		c0.1,0,0.1,0,0.2,0l0.1,0l0,0c1.3-0.2,2.2-1.2,2.2-2.5c0-1.3-0.9-2.3-2.1-2.5l0,0l-0.3,0c0,0-0.1,0-0.1,0c0,0,0,0-0.1,0l-30.7-0.2
		c-2-3.2-4.3-3.8-7.7-2.9c-0.1,0.5-0.3,1-0.3,1.4c0,19.6-0.1,39.3,0.1,58.9c0,1.2,1.5,2.9,2.7,3.3c31.2,11.6,66.7-8.2,63.7-46.3
		C117.2,33.6,82,19.9,55.3,30.8z"/>
	<linearGradient id="SVGID_2_" gradientUnits="userSpaceOnUse" x1="72.1916" y1="15.5" x2="72.1916" y2="129.3927">
		<stop  offset="0" style="stop-color:#7F9DFF"/>
		<stop  offset="0.5078" style="stop-color:#817FFF"/>
		<stop  offset="1" style="stop-color:#0400FF"/>
	</linearGradient>
	<path class="st1" d="M128.1,93.5c0-1.5-1.2-2.6-2.6-2.6c-1.1,0-2.1,0.7-2.5,1.7c0,0,0,0,0,0c-13.6,32.3-49.2,37.8-71.6,27.4
		c-25.2-11.7-36.6-41.6-25.3-68.7C30.5,40.5,38.7,31.8,49,26.5c14.2-7.4,29.2-7.8,44.6-2.7c0,0,0,0,0,0c0.2,0.1,0.5,0.1,0.8,0.1
		c1.3,0,2.3-1.1,2.3-2.3c0-1-0.6-1.8-1.4-2.2c0,0,0,0,0,0c-6.3-1.9-12-3.7-18.3-3.9c-2.4,0-4.5,0-6,0.1c-1.8,0.2-3,0.4-4.3,0.6
		c-49.4,6.1-61.6,58.4-40.6,89.1c9.7,14.1,23.5,21.7,40.4,23.6c6.9,1.1,14.9,0,14.9,0.1c21.6-2.6,37.2-13.8,46.5-34.4c0,0,0,0,0,0
		C128,94.3,128.1,93.9,128.1,93.5z"/>
</g>
</svg>
